<?xml version="1.0" encoding="UTF-8"?>
<svg width="26px" height="26px" viewBox="0 0 26 26" version="1.1" xmlns="http://www.w3.org/2000/svg" xmlns:xlink="http://www.w3.org/1999/xlink">
    <title>CodeShell LOGO</title>
    <defs>
        <linearGradient x1="-2.47192458%" y1="24.8045891%" x2="77.6357792%" y2="66.6574819%" id="linearGradient-1">
            <stop stop-color="#B8CFF1" offset="0%"></stop>
            <stop stop-color="#005DC9" offset="100%"></stop>
        </linearGradient>
        <linearGradient x1="103.616047%" y1="28.9718668%" x2="23.0824222%" y2="59.1919554%" id="linearGradient-2">
            <stop stop-color="#B8CFF1" offset="0%"></stop>
            <stop stop-color="#005DC9" offset="100%"></stop>
        </linearGradient>
        <linearGradient x1="31.4805863%" y1="8.41037716%" x2="64.9899323%" y2="62.1159107%" id="linearGradient-3">
            <stop stop-color="#B8CFF1" offset="1%"></stop>
            <stop stop-color="#005DC9" offset="100%"></stop>
        </linearGradient>
        <linearGradient x1="65.0803758%" y1="6.784819%" x2="36.4388589%" y2="64.5552535%" id="linearGradient-4">
            <stop stop-color="#B8CFF1" offset="1%"></stop>
            <stop stop-color="#005DC9" offset="100%"></stop>
        </linearGradient>
        <linearGradient x1="41.3254881%" y1="-9.82084135%" x2="58.0656323%" y2="77.8223246%" id="linearGradient-5">
            <stop stop-color="#B8CFF1" offset="1%"></stop>
            <stop stop-color="#005DC9" offset="100%"></stop>
        </linearGradient>
        <linearGradient x1="56.1286196%" y1="-3.73344099%" x2="42.2230723%" y2="87.8371241%" id="linearGradient-6">
            <stop stop-color="#B8CFF1" offset="1%"></stop>
            <stop stop-color="#005DC9" offset="97%"></stop>
        </linearGradient>
        <linearGradient x1="49.990563%" y1="-12.1696574%" x2="49.990563%" y2="106.133768%" id="linearGradient-7">
            <stop stop-color="#B8CFF1" offset="0%"></stop>
            <stop stop-color="#005DC9" offset="92%"></stop>
        </linearGradient>
        <linearGradient x1="50%" y1="100%" x2="50%" y2="-42.6717825%" id="linearGradient-8">
            <stop stop-color="#005DC9" offset="0%"></stop>
            <stop stop-color="#B8CFF1" offset="100%"></stop>
        </linearGradient>
        <radialGradient cx="40.8297875%" cy="25.2939834%" fx="40.8297875%" fy="25.2939834%" r="91.7215241%" gradientTransform="translate(0.408298,0.252940),scale(1.000000,0.998778),translate(-0.408298,-0.252940)" id="radialGradient-9">
            <stop stop-color="#FFE69C" offset="5%"></stop>
            <stop stop-color="#FFC600" offset="26%"></stop>
            <stop stop-color="#FF8800" offset="75%"></stop>
        </radialGradient>
    </defs>
    <g id="page-1" stroke="none" stroke-width="1" fill="none" fill-rule="evenodd">
        <g id="CodeShell LOGO" fill-rule="nonzero">
            <path d="M6.78877159,20.6469664 C4.35187907,19.8602793 1.87323033,18.9499939 1.03643584,18.325321 C0.199641352,17.700648 -0.147770332,17.0008139 0.057670231,16.3794815 C0.245448589,15.8644034 0.742325539,15.5277659 1.29031361,15.5443573 C1.61476229,15.5494881 1.93105711,15.6468095 2.20226928,15.824959 L2.502914,16.0153673 C3.65010048,17.3170264 4.91852297,18.506592 6.29103755,19.5679858 C6.42532602,19.9414073 6.59186598,20.3024302 6.78877159,20.6469664 L6.78877159,20.6469664 Z" id="路径" fill="url(#linearGradient-1)"></path>
            <path d="M24.9644155,18.31864 C24.12094,18.9483237 21.5888434,19.8652901 19.1185459,20.6569879 C19.3022597,20.3361565 19.4597746,20.0010184 19.5895559,19.6548388 C21.0088802,18.5700957 22.318489,17.3488758 23.4996076,16.0086863 L23.7985821,15.8199483 C24.0697943,15.6417988 24.3860891,15.5444773 24.7105378,15.5393465 C25.2585258,15.5227551 25.7554028,15.8593926 25.9431811,16.3744708 C26.1486217,16.9941329 25.7911885,17.7023183 24.9644155,18.31864 Z" id="路径" fill="url(#linearGradient-2)"></path>
            <path d="M6.61840625,13.9442592 L6.61840625,13.9442592 C6.50927484,14.1616549 6.41170765,14.3846657 6.32611277,14.6123586 C6.15811459,15.0531559 6.03500661,15.5097746 5.9586581,15.9752814 L5.9586581,15.9752814 C5.82331259,16.7956417 5.83235659,17.6333426 5.98538208,18.4505896 L5.84675145,18.3487045 C4.81006681,17.4783553 3.84232774,16.5290441 2.95221084,15.509282 L2.95221084,15.509282 C2.12704114,14.5831656 1.41754613,13.5601467 0.839346518,12.4627488 C0.162895885,11.1148583 0.0994264429,9.87052319 0.66230018,8.95522702 C1.14256651,8.19796925 1.97867911,7.74110471 2.87537941,7.74592869 C3.25356866,7.74438308 3.62695009,7.83072396 3.96605167,7.99817464 C4.52558491,9.98911083 5.50769101,12.0318247 6.61840625,13.9442592 Z" id="路径" fill="url(#linearGradient-3)"></path>
            <path d="M25.1615048,12.4627488 C24.5825136,13.5594485 23.87186,14.5813986 23.0453,15.5059415 C22.1856663,16.4919225 21.2532785,17.4120274 20.2559851,18.258511 L20.2559851,18.258511 L19.9219354,18.5023673 C20.0115062,18.0496619 20.0562623,17.5892337 20.0555552,17.1277528 C20.0570648,16.2539003 19.8962189,15.3873717 19.5812047,14.5722726 C19.5194055,14.4152693 19.4542658,14.2599362 19.3824451,14.1079436 C20.4898199,12.1587636 21.4735962,10.0559208 22.0414807,7.9931639 L22.0414807,7.9931639 C22.3801905,7.82833716 22.7521282,7.74320856 23.1288124,7.74427861 C24.0246548,7.74094817 24.8593158,8.1983399 25.3385512,8.95522702 C25.9014249,9.86885294 25.8379555,11.1131881 25.1615048,12.4627488 Z" id="路径" fill="url(#linearGradient-4)"></path>
            <path d="M10.0941933,10.6438482 C9.51563264,10.8977675 8.97402804,11.2286856 8.4840738,11.6276246 L8.4840738,11.6276246 C7.90656592,12.0976904 7.40661576,12.6556956 7.0025634,13.2811706 C6.17772695,11.8601577 5.48286694,10.3675783 4.92644454,8.82160714 L4.92644454,8.82160714 C4.77946268,8.39569378 4.64751305,7.97145067 4.5389469,7.5488778 C4.47213696,7.29834053 4.41367826,7.04947351 4.36357081,6.80227673 C3.97607316,4.90487446 4.47046671,3.79582947 4.95316852,3.20790201 C5.48059232,2.58636832 6.24288951,2.21237043 7.05721684,2.1756148 C7.87154418,2.13885917 8.6644347,2.44266182 9.2457071,3.01415319 C9.19559965,5.12701751 9.56639481,7.879587 10.0941933,10.6438482 Z" id="路径" fill="url(#linearGradient-5)"></path>
            <path d="M21.6406211,6.80060648 C21.5905136,7.04446276 21.5337252,7.30168103 21.4735962,7.54553731 C21.3700408,7.95196444 21.2464424,8.36674281 21.102801,8.78987242 L21.102801,8.78987242 C20.5475636,10.3928743 19.845297,11.9411038 19.004969,13.4147905 C18.580932,12.7238395 18.0407394,12.1113199 17.4082114,11.6042411 L17.4082114,11.6042411 C16.9617886,11.244144 16.4732831,10.9395992 15.953425,10.6972962 C16.5714169,7.66078445 17.009022,4.72782812 16.8870939,2.89723579 L16.8870939,2.89723579 C17.47882,2.37777871 18.2544702,2.11789847 19.0397083,2.17600609 C19.8249465,2.23411371 20.5538952,2.60533428 21.0627151,3.20623176 C21.5420764,3.79916997 22.0281187,4.90320421 21.6406211,6.80060648 Z" id="路径" fill="url(#linearGradient-6)"></path>
            <path d="M16.235697,3.73403028 C16.215654,5.46607795 15.8331671,7.90965147 15.3170603,10.4417482 C13.8339626,9.92038502 12.2199145,9.90511383 10.7272175,10.3983217 C10.3029744,8.16686974 9.98562718,5.94877976 9.91881724,4.08645271 C9.903785,3.68225258 9.90211476,3.29308468 9.91881724,2.92563002 C9.91881724,2.86884157 9.92215774,2.81316662 9.92883873,2.75860517 C10.0708099,1.00484427 11.6475244,0.203125 13.0922893,0.203125 C14.4284881,0.203125 15.8983068,0.871224391 16.1571953,2.37444802 C16.1705573,2.4562902 16.1839193,2.54147287 16.1939408,2.63333653 C16.2316474,2.99894543 16.2455954,3.36661543 16.235697,3.73403028 L16.235697,3.73403028 Z" id="路径" fill="url(#linearGradient-7)"></path>
            <path d="M25.4905438,21.7075741 C23.1104397,24.1394559 18.4855217,25.7863209 13.1724613,25.7863209 C7.85940087,25.7863209 3.22780184,24.1361154 0.849368009,21.7008931 C0.826736027,21.6778846 0.82176369,21.642803 0.837110435,21.6144115 C0.852457179,21.58602 0.884531255,21.5709635 0.916177948,21.5772948 C1.21818085,21.6370545 1.52528574,21.6672615 1.83314436,21.6674882 C2.56826546,21.6703372 3.29355829,21.4986025 3.94934918,21.1664136 C5.07836821,22.4725913 6.83518527,23.0504916 8.51914902,22.6696373 C10.8281902,24.5237567 14.0463541,24.7475363 16.5897897,23.2308408 C16.9136577,23.0376852 17.2214239,22.81873 17.5100966,22.5761034 C17.9551982,22.7142273 18.4186714,22.784058 18.8847111,22.7832142 C20.244687,22.785368 21.5376424,22.1928905 22.4239676,21.1614029 C23.0798245,21.4934113 23.8050732,21.6651355 24.5401724,21.6624774 C24.8367719,21.6630897 25.132714,21.6345584 25.4237339,21.5772948 C25.4576365,21.5688096 25.4929145,21.584812 25.5088621,21.6159097 C25.5248096,21.6470074 25.5171475,21.6849941 25.4905438,21.7075741 L25.4905438,21.7075741 Z" id="路径" fill="url(#linearGradient-8)"></path>
            <path d="M16.9939898,12.1086561 C17.8783986,12.8197552 18.5598958,13.7512691 18.9698937,14.8094479 C19.2569452,15.5527305 19.4041839,16.3426589 19.4041839,17.1394446 C19.4075823,19.5717349 18.0418478,21.7989277 15.8724538,22.8988267 C13.7030598,23.9987257 11.0993025,23.7840948 9.13929926,22.3438047 C7.17929605,20.9035146 6.19669858,18.482746 6.59836327,16.0838475 C6.66785852,15.6611229 6.77977375,15.246477 6.93241296,14.8461934 C7.3353839,13.7839626 8.0111358,12.8466665 8.89161443,12.1286991 C11.2496389,10.211859 14.6265108,10.2035055 16.9939898,12.1086561 Z M13.6334804,14.9681215 L13.6208196,14.9681215 C13.4351118,14.9687404 13.2731269,15.0830768 13.2262222,15.2466463 L12.0192187,19.5071148 C11.9878829,19.6175913 12.0144848,19.7350498 12.0912664,19.8252358 C12.1680481,19.9154218 12.2863627,19.9681789 12.4117058,19.9681215 L12.4243667,19.9681215 C12.6091896,19.9682062 12.7706482,19.8544188 12.8168539,19.6915174 L14.0259676,15.4310489 C14.0571861,15.3203801 14.0306007,15.2027899 13.9539113,15.1123371 C13.877222,15.0218842 13.7589976,14.9686752 13.6334804,14.9681215 Z M11.0556353,15.5238851 C10.9227715,15.4593808 10.7615691,15.4672739 10.637073,15.5443797 L8.17453245,17.0426508 C8.06244503,17.1098912 7.99503739,17.2239504 7.99516926,17.3461468 L7.99516926,17.6093047 C7.99607889,17.7332449 8.06496798,17.8485728 8.17875275,17.9166424 L10.6412933,19.3995466 C10.7657894,19.4766524 10.9269918,19.4845456 11.0598556,19.4200412 C11.1927195,19.3555369 11.2753235,19.2292777 11.2743371,19.092209 C11.274603,18.9679528 11.2064672,18.8518385 11.0928645,18.7829504 L9.45117085,17.797549 C9.33618869,17.7290626 9.26689779,17.6124131 9.26689779,17.48733 C9.26689779,17.362247 9.33618869,17.2455975 9.45117085,17.1771111 L11.0823138,16.2320477 C11.1995535,16.1646376 11.2704913,16.0470975 11.2701168,15.9208683 L11.2701168,15.8517174 C11.2711032,15.7146486 11.1884992,15.5883894 11.0556353,15.5238851 Z M15.4060032,15.5731926 C15.2818206,15.4962851 15.121089,15.4882262 14.9883788,15.5522532 C14.8556686,15.6162803 14.7727598,15.7418854 14.7729563,15.8786094 L14.7729563,15.9170266 C14.7775005,16.0409759 14.8494838,16.1547467 14.9649826,16.2205226 L16.5961256,17.1655859 C16.7120763,17.2334483 16.7821662,17.3503217 16.7821662,17.4758049 C16.7821662,17.601288 16.7120763,17.7181615 16.5961256,17.7860239 L14.9544319,18.7714253 C14.8408292,18.8403133 14.7726934,18.9564277 14.7729563,19.0806838 C14.7742141,19.2168223 14.8573404,19.3413819 14.9894868,19.405137 C15.1216332,19.468892 15.2815364,19.4615838 15.4060032,19.3861006 L17.81579,17.9185632 C17.9282117,17.8507061 17.9956128,17.7359361 17.9951658,17.6131464 L17.9951658,17.371118 C17.995704,17.2487778 17.9292288,17.1342368 17.8179002,17.0657012 Z" id="形状结合" fill="url(#radialGradient-9)"></path>
        </g>
    </g>
</svg>